<svg xmlns="http://www.w3.org/2000/svg" xmlns:xlink="http://www.w3.org/1999/xlink" viewBox="0 0 96.539 96.539">
  <defs>
    <style>
      .cls-1 {
        fill: #008156;
      }

      .cls-2 {
        fill: #fff;
      }

      .cls-3 {
        opacity: 0.12;
      }

      .cls-4 {
        fill: url(#linear-gradient);
      }

      .cls-5 {
        fill: url(#linear-gradient-2);
      }

      .cls-6 {
        filter: url(#teal_circle);
      }
    </style>
    <filter id="teal_circle" x="0" y="0" width="96.539" height="96.539" filterUnits="userSpaceOnUse">
      <feOffset dy="6" input="SourceAlpha"/>
      <feGaussianBlur stdDeviation="3" result="blur"/>
      <feFlood flood-opacity="0.239"/>
      <feComposite operator="in" in2="blur"/>
      <feComposite in="SourceGraphic"/>
    </filter>
    <linearGradient id="linear-gradient" x1="0.5" y1="1" x2="0.5" gradientUnits="objectBoundingBox">
      <stop offset="0"/>
      <stop offset="0.14" stop-opacity="0.631"/>
      <stop offset="1" stop-opacity="0"/>
    </linearGradient>
    <linearGradient id="linear-gradient-2" x1="0.5" y1="1" x2="0.5" gradientUnits="objectBoundingBox">
      <stop offset="0" stop-color="#fff" stop-opacity="0"/>
      <stop offset="0.23" stop-color="#fff" stop-opacity="0.012"/>
      <stop offset="0.36" stop-color="#fff" stop-opacity="0.039"/>
      <stop offset="0.47" stop-color="#fff" stop-opacity="0.102"/>
      <stop offset="0.57" stop-color="#fff" stop-opacity="0.18"/>
      <stop offset="0.67" stop-color="#fff" stop-opacity="0.278"/>
      <stop offset="0.75" stop-color="#fff" stop-opacity="0.412"/>
      <stop offset="0.83" stop-color="#fff" stop-opacity="0.561"/>
      <stop offset="0.91" stop-color="#fff" stop-opacity="0.741"/>
      <stop offset="0.98" stop-color="#fff" stop-opacity="0.929"/>
      <stop offset="1" stop-color="#fff"/>
    </linearGradient>
  </defs>
  <g id="Round_Btn_Default_Light" data-name="Round Btn Default Light" transform="translate(-111 -48)">
    <g class="cls-6" transform="matrix(1, 0, 0, 1, 111, 48)">
      <circle id="teal_circle-2" data-name="teal circle" class="cls-1" cx="39.27" cy="39.27" r="39.27" transform="translate(9 3)"/>
    </g>
    <g id="ic_add_white" transform="translate(149.452 80.452)">
      <path id="ic_add_white-2" data-name="ic_add_white" class="cls-2" d="M3443.635,991.22h-8.415v8.415h-2.8V991.22H3424v-2.8h8.415V980h2.8v8.415h8.415Z" transform="translate(-3424 -980)"/>
    </g>
    <g id="그룹_334" data-name="그룹 334" class="cls-3" transform="translate(120 51)">
      <path id="gradient_border_2" data-name="gradient border 2" class="cls-4" d="M3442.269,959.7a38.568,38.568,0,1,1-38.568,38.568,38.568,38.568,0,0,1,38.568-38.568m0-.7a39.27,39.27,0,1,0,39.27,39.27,39.269,39.269,0,0,0-39.27-39.27Z" transform="translate(-3403 -959)"/>
      <path id="gradient_border_1" data-name="gradient border 1" class="cls-5" d="M3442.269,959.7a38.568,38.568,0,1,1-38.568,38.568,38.568,38.568,0,0,1,38.568-38.568m0-.7a39.27,39.27,0,1,0,39.27,39.27,39.269,39.269,0,0,0-39.27-39.27Z" transform="translate(-3403 -959)"/>
    </g>
  </g>
</svg>
